{"asset":{"generator":"Khronos glTF Blender I/O v0.9.36","version":"2.0"},"scene":0,"scenes":[{"name":"Scene","nodes":[0,1,2,3]}],"nodes":[{"mesh":0,"name":"GoldShippingTruck_0_0","rotation":[0.7071068286895752,0,0,0.7071067094802856]},{"mesh":1,"name":"GoldShippingTruck_0_1","rotation":[0.7071068286895752,0,0,0.7071067094802856]},{"mesh":2,"name":"cabin","rotation":[0.7071068286895752,0,0,0.7071067094802856]},{"mesh":3,"name":"GoldShippingTruck_0_3","rotation":[0.7071068286895752,0,0,0.7071067094802856],"translation":[0,0.9437248110771179,-1.8609998226165771]}],"meshes":[{"name":"GoldShippingTruck_0_0","primitives":[{"attributes":{"POSITION":0,"TEXCOORD_0":1},"indices":2}]},{"name":"GoldShippingTruck_0_1","primitives":[{"attributes":{"POSITION":3,"TEXCOORD_0":4},"indices":5}]},{"name":"cabin","primitives":[{"attributes":{"POSITION":6,"TEXCOORD_0":7},"indices":8}]},{"name":"GoldShippingTruck_0_3","primitives":[{"attributes":{"POSITION":9,"TEXCOORD_0":10},"indices":11}]}],"accessors":[{"bufferView":0,"componentType":5126,"count":36,"max":[0.8999999761581421,1.5371309518814087,-0.3626979887485504],"min":[-0.8999999761581421,-1.8559060096740723,-0.7905564904212952],"type":"VEC3"},{"bufferView":1,"componentType":5126,"count":36,"type":"VEC2"},{"bufferView":2,"componentType":5123,"count":66,"type":"SCALAR"},{"bufferView":3,"componentType":5126,"count":482,"max":[0.6692495942115784,1.1804108619689941,-0.009692992083728313],"min":[-0.632611870765686,0.5610237121582031,-0.6290792226791382],"type":"VEC3"},{"bufferView":4,"componentType":5126,"count":482,"type":"VEC2"},{"bufferView":5,"componentType":5123,"count":936,"type":"SCALAR"},{"bufferView":6,"componentType":5126,"count":177,"max":[0.7079275846481323,1.8154950141906738,-0.2645702064037323],"min":[-0.7079275846481323,0.6886355876922607,-1.7354300022125244],"type":"VEC3"},{"bufferView":7,"componentType":5126,"count":177,"type":"VEC2"},{"bufferView":8,"componentType":5123,"count":405,"type":"SCALAR"},{"bufferView":9,"componentType":5126,"count":70,"max":[0.6000000238418579,0.3999999761581421,0.1617245078086853],"min":[-0.6000000238418579,-0.3999999761581421,-0.21246647834777832],"type":"VEC3"},{"bufferView":10,"componentType":5126,"count":70,"type":"VEC2"},{"bufferView":11,"componentType":5123,"count":150,"type":"SCALAR"}],"bufferViews":[{"buffer":0,"byteLength":432,"byteOffset":0},{"buffer":0,"byteLength":288,"byteOffset":432},{"buffer":0,"byteLength":132,"byteOffset":720},{"buffer":0,"byteLength":5784,"byteOffset":852},{"buffer":0,"byteLength":3856,"byteOffset":6636},{"buffer":0,"byteLength":1872,"byteOffset":10492},{"buffer":0,"byteLength":2124,"byteOffset":12364},{"buffer":0,"byteLength":1416,"byteOffset":14488},{"buffer":0,"byteLength":810,"byteOffset":15904},{"buffer":0,"byteLength":840,"byteOffset":16716},{"buffer":0,"byteLength":560,"byteOffset":17556},{"buffer":0,"byteLength":300,"byteOffset":18116}],"buffers":[{"byteLength":18416,"uri":"data:application/octet-stream;base64,"}]}